<mxfile host="app.diagrams.net" modified="2024-02-20T06:16:12.951Z" agent="Mozilla/5.0 (Windows NT 10.0; Win64; x64) AppleWebKit/537.36 (KHTML, like Gecko) Chrome/121.0.0.0 Safari/537.36" etag="7q3ldxiee6eRdRb-xh33" version="23.1.5" type="github">
  <diagram name="Page-1" id="Gb3lcBezUdDrgLFfBF2O">
    <mxGraphModel dx="1259" dy="730" grid="1" gridSize="10" guides="1" tooltips="1" connect="1" arrows="0" fold="1" page="1" pageScale="1" pageWidth="1169" pageHeight="827" math="0" shadow="0">
      <root>
        <mxCell id="0" />
        <mxCell id="1" parent="0" />
        <mxCell id="yrEbets0NNJ-oAbuuwBB-1" value="" style="verticalLabelPosition=bottom;shadow=0;dashed=0;align=center;html=1;verticalAlign=top;shape=mxgraph.electrical.logic_gates.logic_gate;operation=and;" parent="1" vertex="1">
          <mxGeometry x="322" y="205" width="100" height="60" as="geometry" />
        </mxCell>
        <mxCell id="yrEbets0NNJ-oAbuuwBB-2" value="" style="verticalLabelPosition=bottom;shadow=0;dashed=0;align=center;html=1;verticalAlign=top;shape=mxgraph.electrical.logic_gates.inverter_2;movableLabel=1;" parent="1" vertex="1">
          <mxGeometry x="150" y="190" width="100" height="60" as="geometry" />
        </mxCell>
        <mxCell id="yrEbets0NNJ-oAbuuwBB-4" value="CMUX" style="shadow=0;dashed=0;align=center;html=1;strokeWidth=1;shape=mxgraph.electrical.abstract.mux2;whiteSpace=wrap;fontSize=20;" parent="1" vertex="1">
          <mxGeometry x="491" y="206" width="80" height="120" as="geometry" />
        </mxCell>
        <mxCell id="yrEbets0NNJ-oAbuuwBB-5" style="edgeStyle=orthogonalEdgeStyle;rounded=0;orthogonalLoop=1;jettySize=auto;html=1;exitX=1;exitY=0.5;exitDx=0;exitDy=0;exitPerimeter=0;entryX=0;entryY=0.25;entryDx=0;entryDy=0;entryPerimeter=0;" parent="1" source="yrEbets0NNJ-oAbuuwBB-2" target="yrEbets0NNJ-oAbuuwBB-1" edge="1">
          <mxGeometry relative="1" as="geometry">
            <Array as="points">
              <mxPoint x="250" y="220" />
            </Array>
          </mxGeometry>
        </mxCell>
        <mxCell id="yrEbets0NNJ-oAbuuwBB-10" value="rst_req_n" style="edgeLabel;html=1;align=center;verticalAlign=bottom;resizable=0;points=[];labelPosition=center;verticalLabelPosition=top;" parent="yrEbets0NNJ-oAbuuwBB-5" vertex="1" connectable="0">
          <mxGeometry x="-0.1595" y="4" relative="1" as="geometry">
            <mxPoint x="-7" y="4" as="offset" />
          </mxGeometry>
        </mxCell>
        <mxCell id="yrEbets0NNJ-oAbuuwBB-24" style="edgeStyle=orthogonalEdgeStyle;rounded=0;orthogonalLoop=1;jettySize=auto;html=1;exitX=1;exitY=0.5;exitDx=0;exitDy=0;exitPerimeter=0;entryX=0;entryY=0.21666666666666667;entryDx=0;entryDy=3;entryPerimeter=0;" parent="1" source="yrEbets0NNJ-oAbuuwBB-1" target="yrEbets0NNJ-oAbuuwBB-4" edge="1">
          <mxGeometry relative="1" as="geometry" />
        </mxCell>
        <mxCell id="hpQbeCEYYpr7VmaYqbtR-41" value="rb_and" style="edgeLabel;html=1;align=center;verticalAlign=bottom;resizable=0;points=[];labelPosition=center;verticalLabelPosition=top;" parent="yrEbets0NNJ-oAbuuwBB-24" vertex="1" connectable="0">
          <mxGeometry x="-0.1457" y="1" relative="1" as="geometry">
            <mxPoint as="offset" />
          </mxGeometry>
        </mxCell>
        <mxCell id="hpQbeCEYYpr7VmaYqbtR-53" value="scan_mode" style="shape=mxgraph.arrows2.arrow;verticalLabelPosition=middle;shadow=0;dashed=0;align=center;html=1;verticalAlign=middle;strokeWidth=1;dy=0;dx=10;notch=0;labelPosition=center;" parent="1" vertex="1">
          <mxGeometry x="15" y="331" width="100" height="30" as="geometry" />
        </mxCell>
        <mxCell id="hpQbeCEYYpr7VmaYqbtR-54" value="rst_req" style="shape=mxgraph.arrows2.arrow;verticalLabelPosition=middle;shadow=0;dashed=0;align=center;html=1;verticalAlign=middle;strokeWidth=1;dy=0;dx=10;notch=0;labelPosition=center;" parent="1" vertex="1">
          <mxGeometry x="15" y="205" width="100" height="30" as="geometry" />
        </mxCell>
        <mxCell id="hpQbeCEYYpr7VmaYqbtR-55" value="rb" style="shape=mxgraph.arrows2.arrow;verticalLabelPosition=middle;shadow=0;dashed=0;align=center;html=1;verticalAlign=middle;strokeWidth=1;dy=0;dx=10;notch=0;labelPosition=center;" parent="1" vertex="1">
          <mxGeometry x="15" y="272" width="100" height="30" as="geometry" />
        </mxCell>
        <mxCell id="hpQbeCEYYpr7VmaYqbtR-56" style="edgeStyle=orthogonalEdgeStyle;rounded=0;orthogonalLoop=1;jettySize=auto;html=1;exitX=1;exitY=0.5;exitDx=0;exitDy=0;exitPerimeter=0;entryX=0;entryY=0.5;entryDx=0;entryDy=0;entryPerimeter=0;" parent="1" source="hpQbeCEYYpr7VmaYqbtR-54" target="yrEbets0NNJ-oAbuuwBB-2" edge="1">
          <mxGeometry relative="1" as="geometry" />
        </mxCell>
        <mxCell id="hpQbeCEYYpr7VmaYqbtR-57" style="edgeStyle=orthogonalEdgeStyle;rounded=0;orthogonalLoop=1;jettySize=auto;html=1;exitX=1;exitY=0.5;exitDx=0;exitDy=0;exitPerimeter=0;entryX=0;entryY=0.75;entryDx=0;entryDy=0;entryPerimeter=0;" parent="1" source="hpQbeCEYYpr7VmaYqbtR-55" target="yrEbets0NNJ-oAbuuwBB-1" edge="1">
          <mxGeometry relative="1" as="geometry">
            <Array as="points">
              <mxPoint x="220" y="287" />
              <mxPoint x="220" y="250" />
            </Array>
          </mxGeometry>
        </mxCell>
        <mxCell id="hpQbeCEYYpr7VmaYqbtR-58" style="edgeStyle=orthogonalEdgeStyle;rounded=0;orthogonalLoop=1;jettySize=auto;html=1;exitX=1;exitY=0.5;exitDx=0;exitDy=0;exitPerimeter=0;entryX=0;entryY=0.65;entryDx=0;entryDy=3;entryPerimeter=0;" parent="1" source="hpQbeCEYYpr7VmaYqbtR-55" target="yrEbets0NNJ-oAbuuwBB-4" edge="1">
          <mxGeometry relative="1" as="geometry" />
        </mxCell>
        <mxCell id="hpQbeCEYYpr7VmaYqbtR-59" style="edgeStyle=orthogonalEdgeStyle;rounded=0;orthogonalLoop=1;jettySize=auto;html=1;exitX=1;exitY=0.5;exitDx=0;exitDy=0;exitPerimeter=0;entryX=0.375;entryY=1;entryDx=10;entryDy=0;entryPerimeter=0;" parent="1" source="hpQbeCEYYpr7VmaYqbtR-53" target="yrEbets0NNJ-oAbuuwBB-4" edge="1">
          <mxGeometry relative="1" as="geometry" />
        </mxCell>
        <mxCell id="hpQbeCEYYpr7VmaYqbtR-60" value="V&lt;sub style=&quot;font-size: 12px;&quot;&gt;dd&lt;/sub&gt;" style="verticalLabelPosition=top;verticalAlign=bottom;shape=mxgraph.electrical.signal_sources.vdd;shadow=0;dashed=0;align=center;strokeWidth=1;fontSize=12;html=1;flipV=1;" parent="1" vertex="1">
          <mxGeometry x="270" y="465" width="30" height="40" as="geometry" />
        </mxCell>
        <mxCell id="hpQbeCEYYpr7VmaYqbtR-62" value="" style="verticalLabelPosition=bottom;shadow=0;dashed=0;align=center;html=1;verticalAlign=top;shape=stencil(zVZNj4IwEP01HNcgLMgeDat3zSZ7rlilsbSkrV//fosF46BgLR42wWBn4L030+kMXpjKHJXYC3wkS5wpL/z2guCABEErqs2B9uTGOPZ9s2aowMakf/7P+fL6nJLyY055qf//EpXr21SeWZYLzvhe6uUSS6wMglSC7/CRrFWNTViOBam9R8AXzjx/qq3VFaYZZ0zLJJxJ4Lnxa3BEmGoLrZBLTVJghYWx1vGcwOpcr0aBWXvB/BWmmQNT7MS0sGAavyWmBcNbBzK3sJY2CRxFgGv8mClMtaWrYsJ0hbLdVvA9Wz/UJ6rjcK3+xAfFGUNB7S3t0dPBGqYbLnCPnA2h1JybnpyWqDpRd47GXfAD7irDLtEQgRKGO8O2g+gTEQ8XYQcBRSTDU3HtjgNykQxPRluGSzYm8CBH0esyJl8OEFBFa1tdVITvLy6HQCIIkSSvq2hBXDe5qw1oe0cnsOwjmOpxLqsnmvYHul8Cmt9nDAN8Iu4pucKnqvEiSrbMQGaYVZOg+XYAM/1w89yKK8UL2JnhpAh6N9Cae2HFPfk/3P2Fa829tOJulWvTDB6Ow7upd7Gaj9KL4Q8=);" parent="1" vertex="1">
          <mxGeometry x="330" y="505" width="100" height="100" as="geometry" />
        </mxCell>
        <mxCell id="hpQbeCEYYpr7VmaYqbtR-64" style="edgeStyle=orthogonalEdgeStyle;rounded=0;orthogonalLoop=1;jettySize=auto;html=1;exitX=0.5;exitY=0;exitDx=0;exitDy=0;exitPerimeter=0;entryX=0;entryY=0.2;entryDx=0;entryDy=0;entryPerimeter=0;" parent="1" source="hpQbeCEYYpr7VmaYqbtR-60" target="hpQbeCEYYpr7VmaYqbtR-62" edge="1">
          <mxGeometry relative="1" as="geometry" />
        </mxCell>
        <mxCell id="hpQbeCEYYpr7VmaYqbtR-67" value="ck" style="shape=mxgraph.arrows2.arrow;verticalLabelPosition=middle;shadow=0;dashed=0;align=center;html=1;verticalAlign=middle;strokeWidth=1;dy=0;dx=10;notch=0;labelPosition=center;" parent="1" vertex="1">
          <mxGeometry x="15" y="550" width="100" height="30" as="geometry" />
        </mxCell>
        <mxCell id="hpQbeCEYYpr7VmaYqbtR-68" style="edgeStyle=orthogonalEdgeStyle;rounded=0;orthogonalLoop=1;jettySize=auto;html=1;exitX=1;exitY=0.5;exitDx=0;exitDy=0;exitPerimeter=0;entryX=0;entryY=0.6;entryDx=0;entryDy=0;entryPerimeter=0;" parent="1" source="hpQbeCEYYpr7VmaYqbtR-67" target="hpQbeCEYYpr7VmaYqbtR-62" edge="1">
          <mxGeometry relative="1" as="geometry" />
        </mxCell>
        <mxCell id="hpQbeCEYYpr7VmaYqbtR-70" value="" style="verticalLabelPosition=bottom;shadow=0;dashed=0;align=center;html=1;verticalAlign=top;shape=stencil(zVZNj4IwEP01HNcgLMgeDat3zSZ7rlilsbSkrV//fosF46BgLR42wWBn4L030+kMXpjKHJXYC3wkS5wpL/z2guCABEErqs2B9uTGOPZ9s2aowMakf/7P+fL6nJLyY055qf//EpXr21SeWZYLzvhe6uUSS6wMglSC7/CRrFWNTViOBam9R8AXzjx/qq3VFaYZZ0zLJJxJ4Lnxa3BEmGoLrZBLTVJghYWx1vGcwOpcr0aBWXvB/BWmmQNT7MS0sGAavyWmBcNbBzK3sJY2CRxFgGv8mClMtaWrYsJ0hbLdVvA9Wz/UJ6rjcK3+xAfFGUNB7S3t0dPBGqYbLnCPnA2h1JybnpyWqDpRd47GXfAD7irDLtEQgRKGO8O2g+gTEQ8XYQcBRSTDU3HtjgNykQxPRluGSzYm8CBH0esyJl8OEFBFa1tdVITvLy6HQCIIkSSvq2hBXDe5qw1oe0cnsOwjmOpxLqsnmvYHul8Cmt9nDAN8Iu4pucKnqvEiSrbMQGaYVZOg+XYAM/1w89yKK8UL2JnhpAh6N9Cae2HFPfk/3P2Fa829tOJulWvTDB6Ow7upd7Gaj9KL4Q8=);" parent="1" vertex="1">
          <mxGeometry x="810" y="505" width="100" height="100" as="geometry" />
        </mxCell>
        <mxCell id="hpQbeCEYYpr7VmaYqbtR-72" value="CMUX" style="shadow=0;dashed=0;align=center;html=1;strokeWidth=1;shape=mxgraph.electrical.abstract.mux2;flipV=1;fontSize=20;selectorPins=1;noLabel=0;labelPosition=center;verticalLabelPosition=middle;verticalAlign=middle;horizontal=1;labelBackgroundColor=none;whiteSpace=wrap;" parent="1" vertex="1">
          <mxGeometry x="674" y="460" width="80" height="120" as="geometry" />
        </mxCell>
        <mxCell id="hpQbeCEYYpr7VmaYqbtR-75" style="edgeStyle=orthogonalEdgeStyle;rounded=0;orthogonalLoop=1;jettySize=auto;html=1;exitX=1;exitY=0.5;exitDx=0;exitDy=-5;exitPerimeter=0;entryX=0;entryY=0.2;entryDx=0;entryDy=0;entryPerimeter=0;" parent="1" source="hpQbeCEYYpr7VmaYqbtR-72" target="hpQbeCEYYpr7VmaYqbtR-70" edge="1">
          <mxGeometry relative="1" as="geometry" />
        </mxCell>
        <mxCell id="hpQbeCEYYpr7VmaYqbtR-76" style="edgeStyle=orthogonalEdgeStyle;rounded=0;orthogonalLoop=1;jettySize=auto;html=1;exitX=1;exitY=0.2;exitDx=0;exitDy=0;exitPerimeter=0;entryX=0;entryY=0.21666666666666667;entryDx=0;entryDy=3;entryPerimeter=0;" parent="1" source="hpQbeCEYYpr7VmaYqbtR-62" target="hpQbeCEYYpr7VmaYqbtR-72" edge="1">
          <mxGeometry relative="1" as="geometry" />
        </mxCell>
        <mxCell id="hpQbeCEYYpr7VmaYqbtR-89" value="d_sync[0]" style="edgeLabel;html=1;align=center;verticalAlign=bottom;resizable=0;points=[];labelPosition=center;verticalLabelPosition=top;" parent="hpQbeCEYYpr7VmaYqbtR-76" vertex="1" connectable="0">
          <mxGeometry x="-0.552" relative="1" as="geometry">
            <mxPoint as="offset" />
          </mxGeometry>
        </mxCell>
        <mxCell id="hpQbeCEYYpr7VmaYqbtR-78" value="" style="verticalLabelPosition=bottom;shadow=0;dashed=0;align=center;html=1;verticalAlign=top;shape=mxgraph.electrical.logic_gates.logic_gate;operation=xor;" parent="1" vertex="1">
          <mxGeometry x="474" y="428" width="100" height="60" as="geometry" />
        </mxCell>
        <mxCell id="hpQbeCEYYpr7VmaYqbtR-84" style="edgeStyle=elbowEdgeStyle;rounded=0;orthogonalLoop=1;jettySize=auto;html=1;exitX=1;exitY=0.5;exitDx=0;exitDy=0;exitPerimeter=0;entryX=0;entryY=0.25;entryDx=0;entryDy=0;entryPerimeter=0;jumpStyle=arc;" parent="1" source="yrEbets0NNJ-oAbuuwBB-1" target="hpQbeCEYYpr7VmaYqbtR-78" edge="1">
          <mxGeometry relative="1" as="geometry">
            <Array as="points">
              <mxPoint x="440" y="320" />
            </Array>
          </mxGeometry>
        </mxCell>
        <mxCell id="hpQbeCEYYpr7VmaYqbtR-85" style="edgeStyle=orthogonalEdgeStyle;rounded=0;orthogonalLoop=1;jettySize=auto;html=1;exitX=1;exitY=0.2;exitDx=0;exitDy=0;exitPerimeter=0;entryX=0;entryY=0.75;entryDx=0;entryDy=0;entryPerimeter=0;" parent="1" source="hpQbeCEYYpr7VmaYqbtR-62" target="hpQbeCEYYpr7VmaYqbtR-78" edge="1">
          <mxGeometry relative="1" as="geometry">
            <Array as="points">
              <mxPoint x="440" y="525" />
              <mxPoint x="440" y="473" />
            </Array>
          </mxGeometry>
        </mxCell>
        <mxCell id="hpQbeCEYYpr7VmaYqbtR-86" style="edgeStyle=orthogonalEdgeStyle;rounded=0;orthogonalLoop=1;jettySize=auto;html=1;exitX=1;exitY=0.5;exitDx=0;exitDy=0;exitPerimeter=0;entryX=0;entryY=0.65;entryDx=0;entryDy=3;entryPerimeter=0;" parent="1" source="hpQbeCEYYpr7VmaYqbtR-78" target="hpQbeCEYYpr7VmaYqbtR-72" edge="1">
          <mxGeometry relative="1" as="geometry" />
        </mxCell>
        <mxCell id="hpQbeCEYYpr7VmaYqbtR-87" style="edgeStyle=orthogonalEdgeStyle;rounded=0;orthogonalLoop=1;jettySize=auto;html=1;exitX=1;exitY=0.5;exitDx=0;exitDy=0;exitPerimeter=0;entryX=0.375;entryY=1;entryDx=10;entryDy=0;entryPerimeter=0;" parent="1" source="hpQbeCEYYpr7VmaYqbtR-53" target="hpQbeCEYYpr7VmaYqbtR-72" edge="1">
          <mxGeometry relative="1" as="geometry" />
        </mxCell>
        <mxCell id="hpQbeCEYYpr7VmaYqbtR-88" value="CMUX" style="shadow=0;dashed=0;align=center;html=1;strokeWidth=1;shape=mxgraph.electrical.abstract.mux2;flipV=1;fontSize=20;selectorPins=1;noLabel=0;labelPosition=center;verticalLabelPosition=middle;verticalAlign=middle;horizontal=1;labelBackgroundColor=none;whiteSpace=wrap;" parent="1" vertex="1">
          <mxGeometry x="948" y="460" width="80" height="120" as="geometry" />
        </mxCell>
        <mxCell id="hpQbeCEYYpr7VmaYqbtR-90" style="edgeStyle=orthogonalEdgeStyle;rounded=0;orthogonalLoop=1;jettySize=auto;html=1;exitX=1;exitY=0.5;exitDx=0;exitDy=0;exitPerimeter=0;entryX=0;entryY=0.65;entryDx=0;entryDy=3;entryPerimeter=0;jumpStyle=arc;elbow=vertical;curved=0;" parent="1" source="hpQbeCEYYpr7VmaYqbtR-55" target="hpQbeCEYYpr7VmaYqbtR-88" edge="1">
          <mxGeometry relative="1" as="geometry">
            <Array as="points">
              <mxPoint x="220" y="287" />
              <mxPoint x="220" y="405" />
              <mxPoint x="920" y="405" />
              <mxPoint x="920" y="499" />
            </Array>
          </mxGeometry>
        </mxCell>
        <mxCell id="hpQbeCEYYpr7VmaYqbtR-92" style="edgeStyle=orthogonalEdgeStyle;rounded=0;orthogonalLoop=1;jettySize=auto;html=1;exitX=1;exitY=0.5;exitDx=0;exitDy=0;exitPerimeter=0;entryX=0.375;entryY=1;entryDx=10;entryDy=0;entryPerimeter=0;" parent="1" source="hpQbeCEYYpr7VmaYqbtR-53" target="hpQbeCEYYpr7VmaYqbtR-88" edge="1">
          <mxGeometry relative="1" as="geometry">
            <Array as="points">
              <mxPoint x="988" y="346" />
            </Array>
          </mxGeometry>
        </mxCell>
        <mxCell id="hpQbeCEYYpr7VmaYqbtR-94" value="rb_o" style="shape=mxgraph.arrows2.arrow;verticalLabelPosition=middle;shadow=0;dashed=0;align=center;html=1;verticalAlign=middle;strokeWidth=1;dy=0;dx=10;notch=0;labelPosition=center;" parent="1" vertex="1">
          <mxGeometry x="1061" y="510" width="100" height="30" as="geometry" />
        </mxCell>
        <mxCell id="hpQbeCEYYpr7VmaYqbtR-97" style="edgeStyle=orthogonalEdgeStyle;rounded=0;orthogonalLoop=1;jettySize=auto;html=1;exitX=1;exitY=0.5;exitDx=0;exitDy=-5;exitPerimeter=0;entryX=0.5;entryY=1;entryDx=0;entryDy=0;entryPerimeter=0;jumpStyle=arc;" parent="1" source="yrEbets0NNJ-oAbuuwBB-4" target="hpQbeCEYYpr7VmaYqbtR-62" edge="1">
          <mxGeometry relative="1" as="geometry">
            <Array as="points">
              <mxPoint x="600" y="261" />
              <mxPoint x="600" y="625" />
              <mxPoint x="380" y="625" />
            </Array>
          </mxGeometry>
        </mxCell>
        <mxCell id="hpQbeCEYYpr7VmaYqbtR-98" style="edgeStyle=orthogonalEdgeStyle;rounded=0;orthogonalLoop=1;jettySize=auto;html=1;exitX=1;exitY=0.5;exitDx=0;exitDy=-5;exitPerimeter=0;entryX=0.5;entryY=1;entryDx=0;entryDy=0;entryPerimeter=0;jumpStyle=arc;labelPosition=center;verticalLabelPosition=top;align=center;verticalAlign=bottom;" parent="1" source="yrEbets0NNJ-oAbuuwBB-4" target="hpQbeCEYYpr7VmaYqbtR-70" edge="1">
          <mxGeometry relative="1" as="geometry">
            <Array as="points">
              <mxPoint x="600" y="261" />
              <mxPoint x="600" y="625" />
              <mxPoint x="860" y="625" />
            </Array>
          </mxGeometry>
        </mxCell>
        <mxCell id="VWJunAhAv16PIsDeuNlt-1" value="rb_mux" style="edgeLabel;html=1;align=left;verticalAlign=bottom;resizable=0;points=[];labelPosition=right;verticalLabelPosition=top;" vertex="1" connectable="0" parent="hpQbeCEYYpr7VmaYqbtR-98">
          <mxGeometry x="-0.9586" y="1" relative="1" as="geometry">
            <mxPoint as="offset" />
          </mxGeometry>
        </mxCell>
        <mxCell id="hpQbeCEYYpr7VmaYqbtR-100" style="edgeStyle=orthogonalEdgeStyle;rounded=0;orthogonalLoop=1;jettySize=auto;html=1;exitX=1;exitY=0.5;exitDx=0;exitDy=0;exitPerimeter=0;entryX=0;entryY=0.6;entryDx=0;entryDy=0;entryPerimeter=0;jumpStyle=arc;" parent="1" source="hpQbeCEYYpr7VmaYqbtR-67" target="hpQbeCEYYpr7VmaYqbtR-70" edge="1">
          <mxGeometry relative="1" as="geometry">
            <Array as="points">
              <mxPoint x="170" y="565" />
              <mxPoint x="170" y="650" />
              <mxPoint x="780" y="650" />
              <mxPoint x="780" y="565" />
            </Array>
          </mxGeometry>
        </mxCell>
        <mxCell id="hpQbeCEYYpr7VmaYqbtR-103" style="edgeStyle=orthogonalEdgeStyle;rounded=0;orthogonalLoop=1;jettySize=auto;html=1;exitX=1;exitY=0.2;exitDx=0;exitDy=0;exitPerimeter=0;entryX=0;entryY=0.21666666666666667;entryDx=0;entryDy=3;entryPerimeter=0;" parent="1" source="hpQbeCEYYpr7VmaYqbtR-70" target="hpQbeCEYYpr7VmaYqbtR-88" edge="1">
          <mxGeometry relative="1" as="geometry">
            <Array as="points">
              <mxPoint x="930" y="525" />
              <mxPoint x="930" y="551" />
            </Array>
          </mxGeometry>
        </mxCell>
        <mxCell id="hpQbeCEYYpr7VmaYqbtR-104" value="d_sync[1]" style="edgeLabel;html=1;align=center;verticalAlign=bottom;resizable=0;points=[];labelPosition=center;verticalLabelPosition=top;" parent="hpQbeCEYYpr7VmaYqbtR-103" vertex="1" connectable="0">
          <mxGeometry x="-0.7435" y="1" relative="1" as="geometry">
            <mxPoint as="offset" />
          </mxGeometry>
        </mxCell>
        <mxCell id="hpQbeCEYYpr7VmaYqbtR-105" style="edgeStyle=orthogonalEdgeStyle;rounded=0;orthogonalLoop=1;jettySize=auto;html=1;exitX=1;exitY=0.5;exitDx=0;exitDy=-5;exitPerimeter=0;entryX=0;entryY=0.5;entryDx=0;entryDy=0;entryPerimeter=0;" parent="1" source="hpQbeCEYYpr7VmaYqbtR-88" target="hpQbeCEYYpr7VmaYqbtR-94" edge="1">
          <mxGeometry relative="1" as="geometry" />
        </mxCell>
      </root>
    </mxGraphModel>
  </diagram>
</mxfile>
